<svg id="a7262eb1-4fd9-41b5-aa8f-18be0d7d0093" data-name="a3ca1ab7-d9c7-4d8b-b4bd-531fcca54909" xmlns="http://www.w3.org/2000/svg" viewBox="0 0 792 398.62"><path d="M635.06,79.81h-58a4.5,4.5,0,0,1-4.5-4.48v-21a33.5,33.5,0,1,1,67,0v21A4.52,4.52,0,0,1,635.06,79.81Z" fill="#2f2e41"/><polygon points="544.85 385.9 533.11 382.38 541.1 335.41 558.43 340.61 544.85 385.9" fill="#ffb6b6"/><path d="M544.43,398.18l-37.86-11.35.14-.48A15.4,15.4,0,0,1,525.85,376h0L549,383Z" fill="#2f2e41"/><polygon points="681.64 386.3 669.38 386.3 663.54 339.01 681.64 339.01 681.64 386.3" fill="#ffb6b6"/><path d="M684.76,398.18H645.23v-.5a15.38,15.38,0,0,1,15.38-15.38h24.15Z" fill="#2f2e41"/><circle cx="607.4" cy="55.05" r="24.56" fill="#ffb6b6"/><path d="M578.11,358.45a5.28,5.28,0,0,1-1.31-.16l-49.22-12.8a5.29,5.29,0,0,1-3.79-6.45,5.08,5.08,0,0,1,.17-.51C553.8,258.27,578.23,189,575,154.74a66.14,66.14,0,0,1-6.9-30L568.41,90a6.77,6.77,0,0,1,6.84-6.72h0a6.28,6.28,0,0,1,1.43.17L631.77,96l.31,1a72.25,72.25,0,0,1-1.26,45.08C663.28,171.39,685,267.6,697.6,343.28a5.3,5.3,0,0,1-3.3,5.79h-.15l-38.61,3.82a5.29,5.29,0,0,1-6.79-3.11h0c0-.1-.08-.2-.11-.3L615.47,240,583.21,354.6A5.3,5.3,0,0,1,578.11,358.45Z" fill="#2f2e41"/><path d="M630.75,55.81H598.32a2.5,2.5,0,0,1-2.48-2.19l-.42-3.36a1.5,1.5,0,0,0-1.67-1.3,1.53,1.53,0,0,0-1.18.86l-2.12,4.55a2.5,2.5,0,0,1-2.27,1.44h-4.92a2.5,2.5,0,0,1-2.5-2.48v0a.89.89,0,0,1,0-.23l1.94-20.29a2.52,2.52,0,0,1,1.43-2c14.85-6.93,29.91-6.92,44.76,0a2.47,2.47,0,0,1,1.41,1.92L633.22,53a2.5,2.5,0,0,1-2.11,2.83Z" fill="#2f2e41"/><path d="M557.58,364.77,249.67,338.92a8.5,8.5,0,0,1-7.76-9.18l11.63-138.52a8.51,8.51,0,0,1,9.18-7.75l307.91,25.84a8.51,8.51,0,0,1,7.76,9.19L566.76,357a8.5,8.5,0,0,1-9.17,7.77Z" fill="#ccc"/><path d="M553.35,355.38l-298-25a4.52,4.52,0,0,1-4.11-4.86L262.09,197a4.5,4.5,0,0,1,4.86-4.11h0l298,25a4.53,4.53,0,0,1,4.11,4.87L558.26,351.3a4.5,4.5,0,0,1-4.88,4.08Z" fill="#fff"/><path d="M476.6,307.13h.06a38.66,38.66,0,0,0,6.46-76.9.89.89,0,0,0-.69.19.87.87,0,0,0-.33.61l-6.3,75.14a.9.9,0,0,0,.77,1h0Z" fill="#3f3d56"/><path d="M451.05,240.41a1.13,1.13,0,0,1,.78.39l24,28.36a1.14,1.14,0,0,1,.26.83l-3,35.95a1.12,1.12,0,0,1-.43.79,1.17,1.17,0,0,1-.88.24,38.91,38.91,0,0,1-21.57-66.24,1.17,1.17,0,0,1,.85-.33Z" fill="#e6e6e6"/><path d="M478.3,229.58a1.13,1.13,0,0,1,.76.37,1.1,1.1,0,0,1,.28.85l-2.72,32.44a1.13,1.13,0,0,1-1.21,1.05,1.12,1.12,0,0,1-.79-.41L453.7,239.13a1.14,1.14,0,0,1,.14-1.6h0a39,39,0,0,1,24.34-7.93Z" fill="#6c63ff"/><path d="M459.92,321.59a6.94,6.94,0,1,1-6.34-7.5A6.94,6.94,0,0,1,459.92,321.59Z" fill="#6c63ff"/><path d="M479.69,323.25a6.94,6.94,0,1,1-6.34-7.5A6.94,6.94,0,0,1,479.69,323.25Z" fill="#3f3d56"/><path d="M499.46,324.91a6.94,6.94,0,1,1-6.34-7.5A6.94,6.94,0,0,1,499.46,324.91Z" fill="#e6e6e6"/><path d="M376,240.6l-63.49-5.33a4.73,4.73,0,0,0-.79,9.42L375.24,250a4.73,4.73,0,0,0,.8-9.42Z" fill="#e6e6e6"/><path d="M373.87,266.33,310.38,261a4.72,4.72,0,0,0-2.69,8.84,4.89,4.89,0,0,0,1.9.58l63.49,5.33a4.73,4.73,0,0,0,.8-9.42Z" fill="#e6e6e6"/><path d="M371.71,292.06l-63.49-5.33a4.72,4.72,0,1,0-.8,9.41h0l63.49,5.33a4.73,4.73,0,0,0,.8-9.42Z" fill="#e6e6e6"/><path d="M358,239.08l-45.42-3.81a4.73,4.73,0,0,0-.79,9.42l44.47,3.73a5.38,5.38,0,0,0,1.74-9.34Z" fill="#6c63ff"/><path d="M334.82,263.05,310.38,261a4.72,4.72,0,0,0-2.69,8.84l22.45,1.88a5.38,5.38,0,0,0,5.81-4.91A5.26,5.26,0,0,0,334.82,263.05Z" fill="#6c63ff"/><path d="M367,291.66l-58.74-4.93a4.72,4.72,0,1,0-.8,9.41h0l59.12,5a5.37,5.37,0,0,0,2.5-7.17,5.24,5.24,0,0,0-2.09-2.28Z" fill="#6c63ff"/><path d="M531,215.83a10.73,10.73,0,0,0,8-12.89,11.11,11.11,0,0,0-.58-1.8L573,110.31,555.38,106l-31.8,89.74A10.8,10.8,0,0,0,531,215.83Z" fill="#ffb6b6"/><path d="M574.72,128.62a5.28,5.28,0,0,1-2.25-.5h0l-22-10.31a5.31,5.31,0,0,1-2.57-7.06h0a5.63,5.63,0,0,1,.38-.68l13.39-20.23a13.61,13.61,0,0,1,7.78-7,13.88,13.88,0,0,1,17.29,18.94l-6.9,23.09a5.31,5.31,0,0,1-5.09,3.79Z" fill="#2f2e41"/><path d="M560.5,217.38a10.73,10.73,0,0,0,10.38-11.07v0a10,10,0,0,0-.23-1.88l56.2-80.1-16.79-9L557.13,196.2a10.8,10.8,0,0,0,3.37,21.18Z" fill="#ffb6b6"/><path d="M621.34,140.41a5.46,5.46,0,0,1-3.15-1L598.58,125a5.33,5.33,0,0,1-1.15-7.44,7.19,7.19,0,0,1,.51-.59L615,99.72a13.54,13.54,0,0,1,9-5.4,13.88,13.88,0,0,1,13.29,21.93L626,137.57A5.34,5.34,0,0,1,621.34,140.41Z" fill="#2f2e41"/><path d="M265.57,198.17a10.06,10.06,0,0,1-6-12.88,10.59,10.59,0,0,1,.75-1.6L237,156.64l18.42-2.39,19.36,26a10.11,10.11,0,0,1-9.14,17.88Z" fill="#ffb8b8"/><path d="M133.9,203.89a10,10,0,0,1,.93-14.18h0a9.41,9.41,0,0,1,1.43-1l-7.43-35,17.29,6.78,4.4,32.15a10.11,10.11,0,0,1-16.63,11.26Z" fill="#ffb8b8"/><polygon points="217.57 386.06 229.83 386.06 235.66 338.77 217.57 338.77 217.57 386.06" fill="#ffb8b8"/><path d="M214.44,382.06h24.15A15.39,15.39,0,0,1,254,397.43h0v.5H214.44Z" fill="#2f2e41"/><polygon points="157.57 386.06 169.83 386.06 175.66 338.77 157.57 338.77 157.57 386.06" fill="#ffb8b8"/><path d="M154.44,382.06h24.15A15.39,15.39,0,0,1,194,397.43h0v.5H154.44Z" fill="#2f2e41"/><path d="M216.11,361.37a4.53,4.53,0,0,1-4.47-4L199.11,254.08a1.5,1.5,0,1,0-3-.11h0l-19.9,101.41a4.53,4.53,0,0,1-4.42,3.64H157.16a4.52,4.52,0,0,1-4.5-4.5v-.09l2.93-156.2.24-.14c21.35-12.71,46.51-13.55,76.93-2.54l.31.11L238,356a4.5,4.5,0,0,1-4.31,4.63l-17.36.7Z" fill="#2f2e41"/><circle cx="199.41" cy="30.45" r="24.56" fill="#ffb8b8"/><path d="M256.25,178.92a4.5,4.5,0,0,1-3.53-1l-25.18-21.13a46.37,46.37,0,0,1-16-28.44l-5.67-36.6a14.5,14.5,0,0,1,27-10.56h0l12,57.51,19.14,26a4.5,4.5,0,0,1,.11,5.16L259.36,177a4.5,4.5,0,0,1-3.11,1.95Z" fill="#6c63ff"/><path d="M134,180.79a4.47,4.47,0,0,1-2-3.09l-4.94-32.5a46.39,46.39,0,0,1,6.76-31.94l20-31.26a14.5,14.5,0,1,1,27.31,9.75L181,92h0l-29,51.09-2.79,32.13a4.53,4.53,0,0,1-3.33,4l-8.25,2.19a4.49,4.49,0,0,1-2.69-.11A5.32,5.32,0,0,1,134,180.79Z" fill="#6c63ff"/><path d="M226.27,74.07a41.81,41.81,0,0,0-33.53-13.56l-1.23.09h0a41.72,41.72,0,0,0-30.16,16.64,42.38,42.38,0,0,0-7.53,34.15,132.29,132.29,0,0,1-3.49,67.87l-6.59,20.46a4.49,4.49,0,0,0,2.89,5.65h0a4.41,4.41,0,0,0,1.14.21l33.69,1.82,8.62-14.89v15.35l40.94,2.2h.24a4.52,4.52,0,0,0,4.5-4.5v-.36l-4.62-57.39,5.8-39A42.1,42.1,0,0,0,226.27,74.07Z" fill="#6c63ff"/><path d="M182.34,53.9c2.27,1.31,11.26,2.18,11.9-.37v-.05c.45-1.87.08-3.81-.05-5.73s.06-4,1.36-5.42c2.43-2.62,6.75-1.23,10.26-1.89a8.67,8.67,0,0,0,6.74-9.25c-.05-.4-.13-.8-.21-1.2a6.67,6.67,0,0,1,5.07-7.94h0a6.56,6.56,0,0,1,1.82-.14c3.55.2,7.38,1.28,10.32-1.35,2.27-2,2.82-7.32,1.82-10.2C229.74,5.52,219,3,214.31,1.6a40.59,40.59,0,0,0-34.43,5.65c-3,2.08-5.73,4.71-7,8.1s-.65,7.68,2.19,9.92a18.36,18.36,0,0,0-4.24,17.81C172.24,47.61,179,52,182.34,53.9Z" fill="#2f2e41"/><path d="M791,398.62H1a1,1,0,0,1,0-2H791a1,1,0,0,1,0,2Z" fill="#ccc"/><path d="M714.71,218.91h0a11.36,11.36,0,1,1,10.41-12.24h0a11.35,11.35,0,0,1-10.4,12.23Zm-.14-1.74h0a9.61,9.61,0,1,0-10.35-8.81,9.62,9.62,0,0,0,10.35,8.81Z" fill="#f2f2f2"/><circle cx="753.82" cy="182.78" r="6.99" fill="#f2f2f2"/><circle cx="788.18" cy="160.82" r="3.67" fill="#f2f2f2"/><path d="M401.34,137a11.36,11.36,0,1,1-3.45,15.69h0A11.37,11.37,0,0,1,401.34,137Zm11.29,17.67a9.61,9.61,0,1,0-13.27-2.93h0A9.62,9.62,0,0,0,412.63,154.67Z" fill="#f2f2f2"/><circle cx="403.03" cy="99.71" r="6.99" fill="#f2f2f2"/><circle cx="399.76" cy="59.07" r="3.67" fill="#f2f2f2"/><path d="M92.07,265.7a11.36,11.36,0,1,1,15.78,3h0A11.37,11.37,0,0,1,92.07,265.7Zm17.33-11.8a9.61,9.61,0,1,0-2.53,13.35h0a9.62,9.62,0,0,0,2.53-13.35Z" fill="#f2f2f2"/><circle cx="54.73" cy="265.08" r="6.99" fill="#f2f2f2"/><circle cx="14.2" cy="269.53" r="3.67" transform="translate(-255.44 281.44) rotate(-89.51)" fill="#f2f2f2"/></svg>