<svg id="adf62de6-aef8-4249-bc52-b64c0228e587" data-name="Layer 1" xmlns="http://www.w3.org/2000/svg" viewBox="0 0 800.25 459.46"><path d="M164.52,272.71h0a12.36,12.36,0,0,0-5.2-3L145,254l-7.55,7.24,15.35,15.07a12.18,12.18,0,0,0,3.26,5c3.67,3.51,8.54,4.42,10.88,2s1.26-7.18-2.4-10.69h0Z" fill="#9f616a"/><path d="M158.55,265.68l-7.61,9.56-39.31-29.76,0-.07-23-42.87a14.71,14.71,0,0,1,25.94-13.86,15.62,15.62,0,0,1,.76,1.66l14.9,39,28.33,36.31Z" fill="#d6d6e3"/><path d="M93.81,166.5h16v25.43l-17.68-5.81Z" fill="#9f616a"/><path d="M125.25,155.93a17.6,17.6,0,1,1-17.6-17.6,17.6,17.6,0,0,1,17.6,17.6Z" fill="#9f616a"/><path d="M95.19,167.19l-1.72,3.26L85.89,156c-4.56-14,11.38-22,11.38-22,5.2-6.13,15.65,1,15.65,1,15.08-3.35,7.8,9.36,7.8,9.36s-5.14.11-5.14,4.27-5.6,3.87-5.6,3.87l-4.39,7.68-2.42-2.95C94.15,153.5,95.19,167.19,95.19,167.19Z" fill="#2f2e43"/><rect x="87.31" y="427.06" width="14.22" height="20.18" fill="#9f616a"/><path d="M115.38,459.45c-6.24,0-15.35-.65-15.42-.66-2.44.22-14.61,1.17-15.21-1.61a11.94,11.94,0,0,1,.38-5.6C86.3,440,86.74,439.81,87,439.74c.42-.13,1.63.45,3.59,1.71l.12.08,0,.15c0,.17.9,4.45,5,3.8,2.83-.45,3.75-1.08,4-1.38a1.76,1.76,0,0,1-.75-.63,2.19,2.19,0,0,1-.15-1.82,28.69,28.69,0,0,1,2.18-4.91l.19-.32,16.16,10.91,10,2.85a2.55,2.55,0,0,1,1.67,1.47h0a2.59,2.59,0,0,1-.65,2.91c-1.82,1.63-5.42,4.42-9.2,4.77-1,.1-2.34.13-3.84.13h0Z" fill="#2f2e43"/><rect x="46.15" y="402" width="20.18" height="14.22" transform="translate(-294.98 191.9) rotate(-50.44)" fill="#9f616a"/><path d="M58.17,439.64c-4.81-4-11.42-10.29-11.47-10.34-2-1.38-12-8.4-10.7-10.93a11.9,11.9,0,0,1,3.87-4.08c8.32-8.22,8.73-8.05,9-7.94s1,1.38,1.67,3.61l0,.13-.07.13c-.1.16-2.15,4,1.45,6.13,2.46,1.46,3.56,1.56,4,1.51a1.68,1.68,0,0,1-.17-1,2.16,2.16,0,0,1,1-1.5A27.63,27.63,0,0,1,61.61,413l.35-.14,5.5,18.7,5.87,8.57a2.56,2.56,0,0,1,.34,2.2h0a2.59,2.59,0,0,1-2.36,1.82c-2.43.1-7-.05-10.12-2.18-.82-.58-1.87-1.4-3-2.35h0Z" fill="#2f2e43"/><path d="M125.05,271.45,103.37,432.71H87.11L76.27,271.45h48.78Z" fill="#2f2e43"/><path d="M83.05,359.53l-32.38,42L64.53,413l55.56-52.85,5-88.69-9.94,8.88Z" fill="#2f2e43"/><path d="M115.12,176.59l9.93,94.86H76.27l-3.78-30.79a88.82,88.82,0,0,1,11.05-54.9L91,172.68l24.09,3.91Z" fill="#d6d6e3"/><path d="M119.49,298.41h0a12.39,12.39,0,0,0-3.46-4.93l-6.55-20.16-9.88,3.46,7.71,20.07a12.15,12.15,0,0,0,.87,5.93c1.88,4.72,5.94,7.56,9.06,6.35s4.12-6,2.24-10.72Z" fill="#9f616a"/><path d="M117,289.49,106.07,295,82.65,251.64v-.07L79.53,203a14.7,14.7,0,1,1,29.35,0l-2.62,41.69L117,289.5h0Z" fill="#d6d6e3"/><path d="M791.61,360.37H279.39c-4.77,0-8.64-3.44-8.65-7.68V7.69c0-4.25,3.88-7.68,8.65-7.69H791.61c4.77,0,8.64,3.44,8.64,7.69v345C800.25,356.93,796.38,360.37,791.61,360.37ZM279.39,1.71c-3.71,0-6.72,2.67-6.72,6v345c0,3.3,3,6,6.72,6H791.61c3.71,0,6.72-2.68,6.72-6V7.68c0-3.3-3-6-6.72-6Z" fill="#e6e6e6"/><path d="M741.8,80H329.53a8.67,8.67,0,0,1-8.65-8.65V41.59a8.67,8.67,0,0,1,8.65-8.65H741.8a8.67,8.67,0,0,1,8.65,8.65V71.38A8.67,8.67,0,0,1,741.8,80ZM329.53,34.86a6.75,6.75,0,0,0-6.73,6.73V71.38a6.75,6.75,0,0,0,6.73,6.73H741.8a6.75,6.75,0,0,0,6.73-6.73V41.59a6.75,6.75,0,0,0-6.73-6.73Z" fill="#3f3d56"/><path d="M492.9,172H329.53a8.67,8.67,0,0,1-8.65-8.65V133.58a8.66,8.66,0,0,1,8.65-8.65H492.9a8.65,8.65,0,0,1,8.65,8.65v29.79A8.67,8.67,0,0,1,492.9,172ZM329.53,126.85a6.74,6.74,0,0,0-6.73,6.73v29.79a6.74,6.74,0,0,0,6.73,6.72H492.9a6.74,6.74,0,0,0,6.73-6.72V133.58a6.74,6.74,0,0,0-6.73-6.73Z" fill="#3f3d56"/><path d="M741.8,172H578.43a8.67,8.67,0,0,1-8.65-8.65V133.58a8.66,8.66,0,0,1,8.65-8.65H741.8a8.66,8.66,0,0,1,8.65,8.65v29.79A8.67,8.67,0,0,1,741.8,172ZM578.43,126.85a6.74,6.74,0,0,0-6.73,6.73v29.79a6.74,6.74,0,0,0,6.73,6.72H741.8a6.74,6.74,0,0,0,6.73-6.72V133.58a6.74,6.74,0,0,0-6.73-6.73Z" fill="#3f3d56"/><path d="M589.37,327.55H479.81a8.16,8.16,0,0,1-8.16-8.17V308.81a8.17,8.17,0,0,1,8.16-8.17H589.37a8.19,8.19,0,0,1,8.17,8.17v10.57A8.18,8.18,0,0,1,589.37,327.55Z" fill="#e6e6e6"/><path d="M347.79,222a7.69,7.69,0,1,1,7.69-7.69,7.69,7.69,0,0,1-7.69,7.69Zm0-13.46a5.77,5.77,0,1,0,5.76,5.77h0A5.77,5.77,0,0,0,347.79,208.53Z" fill="#e6e6e6"/><path d="M347.79,247a7.69,7.69,0,1,1,7.69-7.68,7.69,7.69,0,0,1-7.69,7.68Zm0-13.45a5.77,5.77,0,1,0,5.76,5.77h0A5.76,5.76,0,0,0,347.79,233.52Z" fill="#e6e6e6"/><path d="M347.79,272a7.69,7.69,0,1,1,7.69-7.69,7.69,7.69,0,0,1-7.69,7.69Zm0-13.45a5.77,5.77,0,1,0,5.76,5.76h0A5.76,5.76,0,0,0,347.79,258.51Z" fill="#6c63ff"/><path d="M384.59,208.05a6.25,6.25,0,0,0,0,12.5H474a6.25,6.25,0,0,0,0-12.5Z" fill="#e6e6e6"/><path d="M384.59,233a6.25,6.25,0,0,0,0,12.49H474A6.25,6.25,0,1,0,474,233Z" fill="#e6e6e6"/><path d="M384.59,258.16a6.25,6.25,0,0,0,0,12.49H474a6.25,6.25,0,1,0,0-12.49Z" fill="#e6e6e6"/><path d="M597.17,222a7.69,7.69,0,1,1,7.69-7.69h0A7.69,7.69,0,0,1,597.17,222Zm0-13.46a5.77,5.77,0,1,0,5.76,5.77h0A5.77,5.77,0,0,0,597.17,208.53Z" fill="#e6e6e6"/><path d="M597.17,247a7.69,7.69,0,1,1,7.69-7.68h0A7.69,7.69,0,0,1,597.17,247Zm0-13.45a5.77,5.77,0,1,0,5.76,5.77h0A5.76,5.76,0,0,0,597.17,233.52Z" fill="#6c63ff"/><path d="M597.17,272.18a7.69,7.69,0,1,1,7.69-7.69h0A7.7,7.7,0,0,1,597.17,272.18Zm0-13.46a5.77,5.77,0,1,0,5.76,5.77h0A5.76,5.76,0,0,0,597.17,258.72Z" fill="#e6e6e6"/><path d="M633.69,208.05a6.25,6.25,0,0,0,0,12.5h89.37a6.25,6.25,0,0,0,0-12.5Z" fill="#e6e6e6"/><path d="M633.69,233a6.25,6.25,0,1,0-.16,12.49h89.53a6.25,6.25,0,1,0,0-12.49Z" fill="#e6e6e6"/><path d="M633.69,258.16a6.25,6.25,0,1,0-.16,12.49h89.53a6.25,6.25,0,1,0,0-12.49Z" fill="#e6e6e6"/><path d="M347.91,142.23a6.25,6.25,0,1,0,0,12.49H454.58a6.25,6.25,0,1,0,0-12.49H347.91Z" fill="#e6e6e6"/><path d="M347.91,50.24a6.25,6.25,0,1,0,0,12.49H454.58a6.25,6.25,0,1,0,0-12.49Z" fill="#6c63ff"/><path d="M472.13,144.46a.49.49,0,0,0-.49.48.51.51,0,0,0,.07.24l4.08,7.06a.49.49,0,0,0,.66.18.42.42,0,0,0,.17-.18l4.08-7.06a.5.5,0,0,0-.17-.66.54.54,0,0,0-.25-.06Z" fill="#6c63ff"/><path d="M596.81,142.23a6.25,6.25,0,1,0,0,12.49H703.48a6.25,6.25,0,1,0,0-12.49Z" fill="#e6e6e6"/><path d="M721,144.46a.48.48,0,0,0-.48.48.42.42,0,0,0,.07.24l4.08,7.06a.47.47,0,0,0,.65.18.39.39,0,0,0,.18-.18l4.08-7.06a.49.49,0,0,0-.18-.66.48.48,0,0,0-.24-.06Z" fill="#6c63ff"/><circle cx="597.17" cy="239.29" r="3.84" fill="#6c63ff"/><circle cx="347.79" cy="264.4" r="3.84" fill="#6c63ff"/><path d="M218.32,459.44H.78a.8.8,0,0,1-.78-.83.81.81,0,0,1,.78-.78H218.32a.81.81,0,0,1,0,1.61Z" fill="#f2f2f2"/><path d="M250.73,246.23,161,309.11a8.17,8.17,0,0,1-11.38-2l-6.07-8.66a8.17,8.17,0,0,1,2-11.37l89.73-62.89a8.19,8.19,0,0,1,11.38,2l6.06,8.66A8.17,8.17,0,0,1,250.73,246.23Z" fill="#6c63ff"/></svg>