<svg id="ecd5dc9a-ad25-45c4-be2f-ee083c1e97f2" data-name="b6e6848a-42f0-4ad4-8f97-3b4b01a65efb" xmlns="http://www.w3.org/2000/svg" viewBox="0 0 825.18 591.42"><path d="M667.8,376.32a3.61,3.61,0,0,0,2.91-6.14l-.2-1c0-.08.07-.16.11-.23a9.7,9.7,0,0,1,17.88.9c2.59,7.17,6,14.4,6.56,21.89a28.69,28.69,0,0,1-1,9.84,115.16,115.16,0,0,0,12.68-47.26,111.68,111.68,0,0,0-.11-12.41q-.33-5.09-1.11-10.11a116.51,116.51,0,0,0-20.77-50.36,31,31,0,0,1-12.25-14,23.35,23.35,0,0,1-1.85-6.55q.95.17,1.89.27l.59,0h.07a3.58,3.58,0,0,0,3.21-5.69l-.76-1c-.39-.54-.79-1.06-1.18-1.59l-.12-.16L673,251a10.38,10.38,0,0,1,3.54-3.11c4.87-2.56,11.31-.33,14.53,4.11s3.6,10.48,2.16,15.78a41.43,41.43,0,0,1-6.32,12.51l.73,1A118.14,118.14,0,0,1,699,301.21a48.58,48.58,0,0,1,4-22.47c3.1-6.58,8.57-12,13.43-17.57,5.84-6.71,17-3.14,17.56,5.73v.26c-.69.35-1.38.73-2,1.13a4.9,4.9,0,0,0,1.56,9h.09a49.69,49.69,0,0,1-1.62,7.23,50.2,50.2,0,0,1-26.43,30.27l-1.22.55a120,120,0,0,1,5,30.56,114.3,114.3,0,0,1-.94,18.3V364a30,30,0,0,1,11-16.81c8.17-6.1,19.39-8,28.12-12.76a5.63,5.63,0,0,1,8.35,5.87v.22a33.89,33.89,0,0,0-3.77,1.61c-.7.35-1.38.73-2.05,1.13a4.9,4.9,0,0,0,1.55,9h.31A49.26,49.26,0,0,1,742.27,366a50.29,50.29,0,0,1-37.15,14.28h0a120.28,120.28,0,0,1-9.12,23L667.34,402c-.09-.32-.16-.66-.24-1a32.54,32.54,0,0,0,7.95-.1l-6-8.15a.65.65,0,0,1-.13-.16l-3.06-4.14h0a47.11,47.11,0,0,1,2-12.08Z" fill="#f2f2f2"/><path d="M90.32,128.48A3.61,3.61,0,0,1,87,122.54l.14-1-.12-.22a9.7,9.7,0,0,0-17.79,2c-2.14,7.33-5.09,14.75-5.19,22.26a28.44,28.44,0,0,0,1.57,9.76A115.13,115.13,0,0,1,50,109a111.54,111.54,0,0,1-.66-12.39c0-3.39.16-6.77.49-10.16A116.41,116.41,0,0,1,67.52,34.84,31,31,0,0,0,78.88,20.16a23.75,23.75,0,0,0,1.44-6.65c-.61.15-1.24.27-1.86.37l-.59.1H77.8a3.58,3.58,0,0,1-4.09-3h0a3.58,3.58,0,0,1,.53-2.49c.24-.36.47-.72.7-1.08L76,5.77a1,1,0,0,0,.11-.17c.41-.63.82-1.25,1.22-1.89A10.3,10.3,0,0,0,73.62.82c-5-2.25-11.3.37-14.24,5s-3,10.69-1.18,15.89A41.13,41.13,0,0,0,65.29,33.8c-.22.36-.46.7-.68,1.06A117,117,0,0,0,54.55,55.44a48.67,48.67,0,0,0-5.34-22.17c-3.49-6.38-9.29-11.44-14.48-16.71-6.24-6.34-17.16-2.09-17.17,6.8v.26c.72.31,1.42.65,2.12,1a4.91,4.91,0,0,1-1,9.09h-.1a47.43,47.43,0,0,0,2.07,7.11,50.18,50.18,0,0,0,28.26,28.6l1.25.48A118.77,118.77,0,0,0,47,100.71a113.6,113.6,0,0,0,2.07,18.2L49,118.7a30,30,0,0,0-12-16.1c-8.54-5.6-19.86-6.75-28.87-11a5.63,5.63,0,0,0-8,6.4l.06.22a31.64,31.64,0,0,1,3.86,1.37c.72.31,1.43.64,2.13,1a4.9,4.9,0,0,1-1,9.08h-.3a48.6,48.6,0,0,0,10.44,13,50.3,50.3,0,0,0,38,12h0a119.49,119.49,0,0,0,10.52,22.44L92.38,154c.07-.33.12-.67.18-1a32.49,32.49,0,0,1-7.94.38c1.83-2.82,3.66-5.67,5.5-8.5a1,1,0,0,0,.11-.17l2.8-4.32h0a47,47,0,0,0-2.71-11.94Z" fill="#f2f2f2"/><path d="M484.4,117.91a10,10,0,0,1,7,12.27,10.55,10.55,0,0,1-.64,1.73l15.31,17L498,160.72l-21.28-24.33a10.07,10.07,0,0,1,7.66-18.48Z" fill="#ffb6b6"/><path d="M627.7,159.7h0a20,20,0,0,0-27.5-6.61l-.05,0h-.06l-50.34,31.17-54.3-46.15-13.51,12.57,60,77.83,78-40.64C618.07,188.89,629.89,163.28,627.7,159.7Z" fill="#ccc"/><path d="M528,263.36c0,104.54-84.7,189.29-189.23,189.31h-.08c-104.55,0-189.3-84.76-189.3-189.31S234.2,74.06,338.76,74.08a189.5,189.5,0,0,1,177.31,123c.41,1.1.81,2.21,1.2,3.32h0q2.6,7.35,4.58,15A189.52,189.52,0,0,1,528,263.36Z" fill="#e6e6e6"/><path d="M318,135.64a63.53,63.53,0,0,0-55.76-2.28c-7.8,3.39-16,9.48-18.61,20.47,10.52-6.21,24.14,3.6,26.85,19.34l-.64.17c-1.43,10.9,1.77,22.76,8,29.52.81-7,5.42-11.79,10-14.78s9.56-5.15,13-10.28c4.11-6.08,5.15-15,6.78-23.08S312.24,137.9,318,135.64Z" fill="#fff"/><path d="M259.07,228.38c-2.91,4.38-6.8,7.12-10.3,10.54s-6.79,8.06-7.48,14c-.45,3.81.24,7.68.14,11.53s-1.37,8.18-4,9.14c-4.14,1.49-7.29-6.19-11.54-6.72-3.38-.42-6.42,4.89-5.44,9.49S226,283,228.68,280c2.38,4,.7,11.28-2.89,12.51-.37,2.52-.75,5-1.12,7.56-9.07-6.34-18.23-12.79-25.94-22.08a67,67,0,0,1-15.27-36.09c-1-10.68.49-22.89-4.41-31.1-3.93-6.57-10.66-8-16.72-7.61-1.1.07-2.22.2-3.32.33a186.45,186.45,0,0,1,13.56-31A13.41,13.41,0,0,0,176,170.4c5.64-4.78,8.14-14.47,12.72-21.17.29-.43.6-.85.91-1.26,4.68-6.11,10.95-9.26,17-12.18,13.41-6.51,27.21-13.1,41.36-12.2l-4,.39q-7,19.76-14.12,39.5c-.71,2-1.44,4-2.16,6.07-2.68,7.49-5.43,15.46-5,23.84.24,5,2,10.27,5.25,12,3.06,1.58,6.4-.36,9.36-2.27l3.74-2.41c4.49-2.89,9.47-5.86,14.21-3.92,4.34,1.77,7.55,7.67,8.16,14A28,28,0,0,1,259.07,228.38Z" fill="#fff"/><path d="M285.78,318.28l-39.35-24.22.22-.58c-8.15,3.11-11.54,17.6-10.19,29.46s5.92,22.45,8.23,34a90.3,90.3,0,0,1-3.41,47.36,389.08,389.08,0,0,0,45.57-62.78,34.2,34.2,0,0,0,4.12-9.14c.83-3.44.7-7.58-1-10.34A11.64,11.64,0,0,0,285.78,318.28Z" fill="#fff"/><path d="M234,171.36c-1.4,3.13-1.93,7.31-.67,10.55s4,4.8,6.53,6.05l7.25,3.59c2.41,1.2,5,2.4,7.47,1.42,3-1.19,5-5.83,4.49-10.15-.57-4.59-3.46-7.75-6.14-10.44l-11.23-11.29-2.11,2.59A27.85,27.85,0,0,0,234,171.36Z" fill="#fff"/><path d="M489.12,220.44l9.78,2.31c-.57,11-6,21.2-13.34,24.89-3.05,1.54-6.45,2.1-9,5-2.29,2.6-3.44,6.66-4.51,10.54l-5.58,20.32c-2,7.3-4.56,15.41-9.76,18-4.46,2.26-9.56-.5-13-5.14s-5.52-10.88-7.55-17c.13,6.63-3,13.13-7.32,15.43s-9.7.22-12.62-4.92c-2.1-3.69-3-8.56-5-12.3s-6.38-5.89-8.63-2.38c-1.49,2.33-1.3,5.91-2,8.88-1.15,4.6-4.62,7.49-8.06,7.75s-6.77-1.73-9.64-4.41c-5.92-5.55-10.29-14.37-12-24.16-.75-4.36-1-9.12.33-13.21s4.42-7.24,7.52-6.47c2-4.31-2-10-5.61-9.52s-6.49,4.4-9.48,7.4-7.14,5.17-10.14,2.2c0,2.76-2.23,4.59-4.17,4.36s-3.66-1.78-5.44-2.88c-6.87-4.28-15.59-1.44-20.47,6.66,3-13,7.52-27.87,16.9-30.92,3.82-1.25,8-.22,11.62-2.39,6.4-3.84,7.7-18.34,2.16-24.33.71,5.66.57,12.27-2.42,16.14s-9.25,1.34-8.87-4.38c-.86,4-5.16,4.55-7.13,1.52s-1.82-8-.41-11.6,3.8-6.22,6.13-8.71c5-5.36,10.06-10.77,15.85-14.14s12.48-4.5,18.29-1.15c3.06,1.76,5.75,4.71,8.87,6.26s7.09,1.37,9.16-2.29c2.33-4.08,1.23-10.14,2.1-15.24,1.54-9,10.56-13.23,15.55-7.28-3.73-1-7.59,3.46-8,8.82s2.23,10.76,5.84,12.38c6.08,2.69,12-4.08,16.63-10.35L440,144.51a22.71,22.71,0,0,1,2.58-3.13,8.29,8.29,0,0,1,11.32-.24c4.86,4,7.14,12.1,11.13,17.69,5.78,8.13,14.44,10.11,22.5,11.69l18,3.52A188.22,188.22,0,0,1,516,197.15C505.89,201.47,496.49,209.56,489.12,220.44Z" fill="#fff"/><path d="M508.54,347a189.81,189.81,0,0,1-15.67,26.22c-3.79-1.62-7.86,1.27-11.4,4-3.71,2.84-8.16,5.61-12,3s-5.13-10.07-3.9-15.94,4.3-10.54,7.27-15c3.16-4.71,6.53-9.6,10.92-11.43s10,.75,11.33,7l3.11-.1c-1.75-2.4-.83-7.37,1.51-8.24,2.71-1,5.05,2.69,6.65,6C507.13,344,507.85,345.47,508.54,347Z" fill="#fff"/><path d="M389.31,302.56c-6.69.42-12-7.81-15.52-15.92s-6.73-17.37-12.77-21.49c-3.45-2.36-7.38-2.68-11.12-3.83s-7.66-3.5-9.45-8.31l-4.25-1.72c-5.6,3.15-11.28,6.36-16.11,11.49a35.94,35.94,0,0,0-9.6,21c-.81,8.49,2.18,18,7.77,21.16,4.42,2.52,9.57.93,14.05,3.24,5.59,2.88,8.92,11.26,10.17,19.53s.94,16.88,1.84,25.24,3.38,17.08,8.51,21.36c6.42,5.37,15.84.91,18.72-8.86,1.41-4.79,1.37-10.19,2.42-15.17,1.86-8.76,6.89-15.25,10.87-22.44S392,310.9,389.31,302.56Z" fill="#fff"/><path d="M323.19,216.5a18,18,0,0,1,1.74,1.85,6.08,6.08,0,0,1-.11,6.28A5.9,5.9,0,0,0,329,222.5a26.41,26.41,0,0,0,3.2-4.5c.68-1.11,1.41-2.61,1-3.94-.32-.9-1.07-1.28-1.59-2-.83-1.08-1-2.78-1.47-4.26-.93-3.19-3.15-5.53-5.57-5.87l.34.07c-1,.34-1.71,1.94-1.49,3.39s1.05,2.4,1,3.74c-.12,1.92-2,2.82-2.16,4.75A3.62,3.62,0,0,0,323.19,216.5Z" fill="#fff"/><path d="M311.72,183.79h0a6.63,6.63,0,0,0,.57-.61Z" fill="#e6e6e6"/><path d="M313.73,192.83c1.48-1,2.31-3.59,1.82-5.79s-2.21-3.66-3.8-3.25a3.89,3.89,0,0,1-3.59,1.05c-1-.25-2.06-.9-2.91-.16a4.31,4.31,0,0,0-1,1.93c-.32,1-.63,1.94-.95,2.9a1.81,1.81,0,0,0-.11,1.1.92.92,0,0,0,.72.57l5.66,1.67C311,193.26,312.45,193.65,313.73,192.83Z" fill="#fff"/><path d="M456.39,317.56c-.88-1.43-1.76-2.86-2.62-4.29a14.58,14.58,0,0,0-3.46-4.34,3.07,3.07,0,0,0-4.31.38v.06l.1.81c2,2.5,4.1,5.28,4.61,9,.19,1.47.13,3,.3,4.45s.67,3,1.62,3.62c1.37.92,3-.44,4-2.09a7.25,7.25,0,0,0,1.11-4.58A8.16,8.16,0,0,0,456.39,317.56Z" fill="#fff"/><path d="M495.26,262.94c.25-1.66.51-3.31.76-5a14.35,14.35,0,0,0,.15-5.54,3.06,3.06,0,0,0-3.54-2.49h-.07l-.45.69c-.08,3.19-.26,6.67-2.26,9.84-.79,1.24-1.82,2.35-2.63,3.59s-1.41,2.72-1.09,3.81c.46,1.59,2.57,1.6,4.38,1a7.17,7.17,0,0,0,3.8-2.78A8.15,8.15,0,0,0,495.26,262.94Z" fill="#e6e6e6"/><path d="M470.09,319.42c.43-1.23-.19-2.64-.32-4a8.73,8.73,0,0,1,1.33-5,16.23,16.23,0,0,0,2.08-4.56,3.85,3.85,0,0,0-.1-2.23c-.29-.65-1-.95-1.39-.43l.86.55a7.77,7.77,0,0,0-3.49.17,4.31,4.31,0,0,0-2.64,3,19.19,19.19,0,0,1-.7,3.09c-.51,1.06-1.5,1.41-2.13,2.33a5.55,5.55,0,0,0,.09,5.29,6.16,6.16,0,0,0,3.5,2.75C468.23,320.78,469.61,320.8,470.09,319.42Z" fill="#fff"/><path d="M494.49,326.78a12.27,12.27,0,0,0,1.51,2.78c1.17,1.17,2.76.45,4.18.16a7.22,7.22,0,0,1,6.86,2.76,17.51,17.51,0,0,0-10-12.54c-3.34-1.36-6.86-1.49-10.33-1.62l-.6.16C487.59,322.93,492.39,322.83,494.49,326.78Z" fill="#fff"/><path d="M391.14,335.89h0l.17-.34Z" fill="#e6e6e6"/><path d="M387.44,343.05a31.77,31.77,0,0,0-2.08,4.56,39.21,39.21,0,0,0-1.51,7.81c-.18,1.5-.24,3.43.7,4.16a1.34,1.34,0,0,0,1.75-.24,7.24,7.24,0,0,0,1.27-1.88,43.63,43.63,0,0,0,4.28-10.16c.9-3.75.89-8.15-.7-11.39Q389.29,339.48,387.44,343.05Z" fill="#fff"/><path d="M351.72,152.15a4.25,4.25,0,0,0,4.55.89,15.06,15.06,0,0,0,4.27-2.83,9.82,9.82,0,0,0,2.59-2.82,5.75,5.75,0,0,0,.53-4.37c-.58-1.71-2.07-2.29-3.38-2.67L354,138.48l1.52-1.37c-1.57-.84-3.29.72-4.27,2.64a14.08,14.08,0,0,0-1.29,4C349.42,146.76,349.94,150.36,351.72,152.15Z" fill="#e6e6e6"/><path d="M388.75,139.72a3.47,3.47,0,0,0,4.73.38,5.28,5.28,0,0,0,2.09-3.76c.14-1.65-.67-3.48-1.84-3.63l.27-1.54c-2.24-.41-5-.49-6.21,2.24A6.39,6.39,0,0,0,388.75,139.72Z" fill="#e6e6e6"/><path d="M383.81,57.57a49.93,49.93,0,0,0-55.21,44C325.51,129,340,188.47,366.26,213.1c12.39-47.19,55.82-75.18,61.56-100.34C434,85.9,411.21,60.66,383.81,57.57Z" fill="#2563eb"/><circle id="ffd0e683-65fb-48db-9389-7b1a450d51b7" data-name="bce999d6-6b49-4b01-856c-fa28ed4737c4" cx="374.71" cy="102.2" r="16.28" fill="#fff"/><circle id="e84024bb-78f7-4a17-96e8-a90421c182df" data-name="ec94b92e-426e-4459-883c-b3820373e720" cx="357.59" cy="225.93" r="10.66" fill="#2563eb"/><path d="M388.18,90.54a16.28,16.28,0,0,1-16.77,27.91h0A16.28,16.28,0,0,0,383.32,88.6,16.22,16.22,0,0,1,388.18,90.54Z" fill="#231f20" opacity="0.2" style="isolation:isolate"/><path d="M427.89,112.83C422.14,138,378.72,166,366.33,213.17a68.21,68.21,0,0,1-6.88-7.54c13.92-44.35,54.64-71.3,60.2-95.61,5-21.75-9-42.43-29-51.16C414.87,65,433.51,88.2,427.89,112.83Z" fill="#231f20" opacity="0.2" style="isolation:isolate"/><path d="M231.23,121.11a37.48,37.48,0,0,0-41.46,33v0c-2.32,20.58,8.52,65.26,28.28,83.75,9.31-35.43,41.91-56.45,46.23-75.35C268.89,142.38,251.8,123.43,231.23,121.11Z" fill="#2563eb"/><circle id="e3226ada-c55a-476d-8163-666a4f04d7c7" data-name="b22227eb-ec36-4cf0-af1f-1ae208ece2bd" cx="224.39" cy="154.62" r="12.23" fill="#fff"/><circle id="b7d42466-3f8d-48b2-8604-dcfa953a107b" data-name="bece0fe3-9400-48a9-a379-15ff18a72a66" cx="211.53" cy="247.53" r="8.01" fill="#2563eb"/><path d="M234.51,145.86a12.24,12.24,0,0,1-12.6,21,12.23,12.23,0,0,0,9-22.42A12.7,12.7,0,0,1,234.51,145.86Z" fill="#231f20" opacity="0.2" style="isolation:isolate"/><path d="M264.33,162.6C260,181.5,227.4,202.52,218.1,238a49.43,49.43,0,0,1-5.17-5.66c10.46-33.31,41-53.55,45.21-71.8,3.73-16.34-6.75-31.86-21.79-38.42C254.55,126.65,268.55,144.1,264.33,162.6Z" fill="#231f20" opacity="0.2" style="isolation:isolate"/><polygon points="614.04 564.05 600.62 564.05 594.23 512.27 614.05 512.27 614.04 564.05" fill="#ffb6b6"/><path d="M621.27,589.55h-9.53l-1.7-9-4.36,9H580.42a5.69,5.69,0,0,1-3.23-10.36l20.18-13.93v-9.1l21.22,1.27Z" fill="#2f2e41"/><polygon points="562.04 564.05 548.62 564.05 542.23 512.27 562.05 512.27 562.04 564.05" fill="#ffb6b6"/><path d="M569.27,589.55h-9.53l-1.7-9-4.36,9H528.42a5.69,5.69,0,0,1-3.23-10.36l20.18-13.93v-9.1l21.22,1.27Z" fill="#2f2e41"/><path d="M511,427.33c2.57,3.86,30.52,109.8,30.52,109.8L566.34,540l-2.94-26.65-4.5-47.17-7-31.49s24.59-55.95,26.14-60.41l1.11-3.2,7.68,69.71a19.67,19.67,0,0,1,1.17,7.79c-.23,4.35,4.13,69.87,4.13,69.87l2.1,23.49,21.24,3,8.61-40.65c7.19-13.21,3.07-60.13.13-64.5S622.44,405,622.44,405c3.75-1.32,26.15-77.7,14.95-77.25.72-4.07,1.28-7.71,1.28-7.71l-19.44-15.68L570.59,291.6l-12.28-5.89s-21.93,40.55-21.71,42.57a11.26,11.26,0,0,1-1.66,7.31L512.8,409.7S508.44,423.44,511,427.33Z" fill="#2f2e41"/><path d="M633.32,162.15l-7.74-16.44-26.36,1-8.59,17.1s-24.57,29.35-25.36,38.89c-1,12,7.31,70.81-1,67,0,0-19.6,23-8,23s64,32.92,67.48,36.62,18.8,6.11,17.52-1.62-8-49.54-8-49.54l18-65.73c5.19-14.19,6.8-30.11-4.92-39.64Z" fill="#ccc"/><path d="M535.7,113.76A28.87,28.87,0,0,0,498.21,130v0h0c-5.88,14.82-6.86,50.23,4.09,68,14.09-24.46,42.57-33.49,49.6-46.66C559.4,137.19,550.53,119.64,535.7,113.76Z" fill="#2563eb"/><circle id="b69c0979-f5c2-4490-afbd-66c3a3400b43" data-name="e77b77e0-2eb5-43f7-aad9-24528f6d6a4e" cx="523.85" cy="137.29" r="9.42" fill="#fff"/><circle id="b2140c12-7a09-4ee8-993c-924641b900f8" data-name="fd5bb454-d9b6-4f97-96dd-0cbf8174aa26" cx="495.51" cy="203.75" r="6.17" fill="#2563eb"/><path d="M533.14,132.82a9.42,9.42,0,0,1-13.6,13A9.42,9.42,0,0,0,530.72,131,9.73,9.73,0,0,1,533.14,132.82Z" fill="#231f20" opacity="0.2" style="isolation:isolate"/><path d="M551.92,151.3c-7,13.17-35.52,22.2-49.6,46.66a41.22,41.22,0,0,1-2.69-5.25c14.5-22.65,41.33-31.51,48.11-44.23,6.08-11.39,1.43-25-8.42-33C551.92,122.59,558.8,138.4,551.92,151.3Z" fill="#231f20" opacity="0.2" style="isolation:isolate"/><path d="M492.73,201.63a10,10,0,0,1,11.82,7.76v0a10.2,10.2,0,0,1,.2,1.75l21.37,8.2-1.82,14.21-30-12a10.07,10.07,0,0,1-1.57-19.94Z" fill="#ffb6b6"/><path d="M642,172.36h0a20,20,0,0,0-27.5,6.63h0v.06l-30.67,50.65L514.45,213.3l-6.32,17.34,88.81,42.07,45-71.64C648.65,191.61,652,178.42,642,172.36Z" fill="#ccc"/><path d="M643.18,110.29a29.83,29.83,0,1,1-51.3-20.68l.15-.15c.23-.25.47-.5.72-.74h0c.31-.28.62-.57.94-.84a29.82,29.82,0,0,1,49.47,22.42Z" fill="#2f2e41"/><circle cx="606.01" cy="117.19" r="25.01" fill="#ffb6b6"/><path d="M632.56,124.32l-4.14-.73a11.54,11.54,0,0,1-9.3-9.31l-4,6.77-.17.06c-9.64,3.2-19.66,2.24-30.64-2.92a84.84,84.84,0,0,1-9.12-5l-.21-.13v-.26c-.56-8.13,1.27-14.93,5.14-19.13a15.4,15.4,0,0,1,11.64-4.85,1,1,0,0,0,.41-.23l.17-.12h0l.28-.14c.62-.29,1.25-.57,1.88-.82a28.2,28.2,0,0,1,29.45,5.71c7.7,7.35,11.23,19.69,8.79,30.71Z" fill="#2f2e41"/><path d="M685.31,145.63c-8.51-4.39,2.44-20.33.24-29.65s-18-12.32-19-21.85-3.38-19.34-9.67-26.57c-4-4.62-9.93-8-16-7.45a14.41,14.41,0,0,0-13,15.69v0a13.61,13.61,0,0,0,.35,2.09c-1.73-2.46-6.22-1.93-7.33.87-1,2.48,1.19,5.49,3.76,5.71,3.36,4.15,7.21,8.56,12.47,9.39A5.7,5.7,0,0,0,642,92.77c1.24-1.19,1.34-3.57-.13-4.46,6.61,2.63,10.49,9.78,11.47,16.83s-.37,14.19-1.27,21.25-1.28,14.49,1.49,21c3.27,7.75,10.81,13.3,19,15.08s17,0,24.41-3.88,13.65-9.91,18.72-16.62C706.91,148.22,694.83,150.54,685.31,145.63Z" fill="#2f2e41"/><path d="M631.5,123.63s-7.41-27.65-39.16-34a3,3,0,0,1-.31-.14l-.34-.17c.36-.21.71-.39,1.06-.57h0c.31-.28.62-.57.94-.84h.9S626.48,82.86,631.5,123.63Z" fill="#fd6584"/><polygon points="614.91 212.36 596.98 233.14 567.34 224.38 599.65 239.27 614.91 212.36" opacity="0.2" style="isolation:isolate"/><path d="M722.57,591.11l-275.75.31a1.19,1.19,0,0,1,0-2.38l275.75-.31a1.19,1.19,0,0,1,0,2.38Z" fill="#cacaca"/><path d="M734.67,406.07q-19.36,0-42.46-1.46C612.6,399.55,509.48,382,401.84,355.12s-206.93-59.8-279.59-92.74c-35.39-16-62.55-31.23-80.73-45.15-19.25-14.72-27.67-27.56-25-38.15,5.15-20.63,50.73-25.14,88.07-25.29v3c-51.27.21-81.51,8.38-85.17,23-4.65,18.64,33.29,47.74,104.09,79.84,72.5,32.87,171.61,65.74,279.07,92.56s210.4,44.36,289.84,49.4c77.58,4.93,124.75-2.93,129.4-21.57,3.86-15.48-21.6-38.28-71.69-64.2l1.38-2.67c36.37,18.85,78.62,45.85,73.2,67.61-2.64,10.59-16.11,18-40,21.93C771.06,404.94,754.32,406.07,734.67,406.07Z" fill="#2563eb"/></svg>