<svg id="ea73ad3b-ea3d-46bb-bfab-844d3050a900" data-name="Layer 1" xmlns="http://www.w3.org/2000/svg" viewBox="0 0 709 516.05"><path d="M529.11,336a2.05,2.05,0,0,0,2.14-1.94,2,2,0,0,0-.66-1.59l-.14-.56.06-.13a5.48,5.48,0,0,1,10.1,0c1.66,4,3.76,8,4.28,12.18a16.29,16.29,0,0,1-.28,5.57,65.08,65.08,0,0,0,5.91-27,62.89,62.89,0,0,0-.39-7q-.33-2.85-.9-5.67a65.64,65.64,0,0,0-13-27.86,17.51,17.51,0,0,1-7.28-7.55,13.44,13.44,0,0,1-1.21-3.64c.35,0,.71.07,1.07.09l.33,0h0a2,2,0,0,0,2.11-1.92,2.06,2.06,0,0,0-.45-1.37l-.46-.56-.71-.87-.07-.09c-.27-.33-.54-.65-.8-1a5.82,5.82,0,0,1,1.91-1.85c2.68-1.57,6.37-.49,8.31,1.93a10.59,10.59,0,0,1,1.63,8.85,23.48,23.48,0,0,1-3.24,7.22c.14.19.29.37.44.55a65.84,65.84,0,0,1,6.9,10.94,27.52,27.52,0,0,1,1.65-12.77c1.57-3.79,4.51-7,7.11-10.26a5.64,5.64,0,0,1,10,2.77l0,.14c-.39.22-.77.45-1.13.69a2.77,2.77,0,0,0,1.11,5h.06a27.57,27.57,0,0,1-.73,4.12,28.35,28.35,0,0,1-14.11,17.76l-.68.34a67.65,67.65,0,0,1,3.64,17.11,63.75,63.75,0,0,1-.05,10.34l0-.12a16.84,16.84,0,0,1,5.78-9.77c4.44-3.65,10.72-5,15.52-7.94a3.17,3.17,0,0,1,4.86,3.09l0,.13a18.12,18.12,0,0,0-2.08,1c-.39.21-.76.45-1.13.69a2.76,2.76,0,0,0,1.11,5h.06l.12,0a27.83,27.83,0,0,1-5.07,7.94,28.4,28.4,0,0,1-20.58,9h0a66.68,66.68,0,0,1-4.53,13.23h-16.2c-.06-.18-.11-.36-.16-.54a18.69,18.69,0,0,0,4.48-.27l-3.6-4.43-.08-.09c-.61-.76-1.23-1.5-1.84-2.26h0a27.45,27.45,0,0,1,.79-6.87Z" fill="#f2f2f2"/><path d="M480.11,187.42c0,8.91,4.46,18,13.38,18s21.22-6.46,18.45-20.3c-1.75-8.74-6.77-13.84-15.68-13.84a16.15,16.15,0,0,0-16.15,16.15Z" fill="#2f2e41"/><path d="M517.52,314.82a5,5,0,0,1,.36-7,5.15,5.15,0,0,1,.7-.53l-3.91-17.2,8.58,3.23,2.4,15.84a5,5,0,0,1-8.13,5.67Z" fill="#a0616a"/><path d="M499.3,253.84l6,.61s-1.56,8.87.88,10.87,1.47,2,1.45,3.47a7.59,7.59,0,0,0,2.91,5.46c2,1.5,6,28.21,6,28.21l8.89.09a27.55,27.55,0,0,1,.06-6.91c.53-3.45,3.19-12.15,2.22-13.64s-.46-4.23-.43-7.19-4.21.31-4.17-4.63-5.38-35.91-4.85-40.35-4.85-8.44-4.85-8.44l-4.94,0-9.2,32.49Z" fill="#e6e6e6"/><path d="M435.73,212.18a4.7,4.7,0,0,0,3.57,5.62,4.48,4.48,0,0,0,.82.1l4.8,16,5.57-6.66-5.41-14.18a4.73,4.73,0,0,0-9.35-.89Z" fill="#a0616a"/><path d="M486.45,217.4s-11.62-4.36-17.91,19.49l-8.36,8.66-7-12.69.93-3-5.43-12.31-9.31,5.34,2.29,8.45-.38,4.18,2.22,2.59,3.64,13.43,2.28,4.38s2.87,5.62,7.88,6.54a13.1,13.1,0,0,0,4.05.12,15.7,15.7,0,0,0,8.51-4.25,207.19,207.19,0,0,0,17.55-17.64Z" fill="#e6e6e6"/><polygon points="502.03 257.33 502.85 261.24 503.55 275.69 475.48 271.88 473.33 255.16 476.31 250.27 502.03 257.33" fill="#a0616a"/><circle cx="492.92" cy="191.89" r="13.28" fill="#a0616a"/><path d="M515.18,223A17.53,17.53,0,0,0,503,212.71h-.05l-2.63-3.54-10.67,1.07-1.95,4-5.06,3h0L480,218.83l-8.79,10.29h0a11.33,11.33,0,0,0-4.89,7.58,12.59,12.59,0,0,0-.13,2.67c.29,5.47,3.71,10.34,4.18,11l1.15,6.47.23,1.33,2.07.3,29.16,4.17.81.12.24,0,.84-2.17v0l8.13-21.27,3.65-9.49a17.2,17.2,0,0,0-1.41-6.89Z" fill="#e6e6e6"/><path d="M506.82,195.38l-.36-.07-6.21-1.1-.19-4.68-2.5,4.19c-5.71,1.9-11.05.82-16.07-1.54a46,46,0,0,1-4.82-2.65c-1.08-6.6,1.65-11.8,8.65-12.46.22,0,.37-.2.56-.3h0c.32-.16.65-.3,1-.43a14.63,14.63,0,0,1,15.36,3A17.46,17.46,0,0,1,506.82,195.38Z" fill="#2f2e41"/><path d="M519.91,302.49A61.86,61.86,0,0,0,517,291h0a57.79,57.79,0,0,0-4.14-9.14h0a44.81,44.81,0,0,0-9.13-11.76l-.39-.41h-.1L475.1,269h-.61l-.35,1a.56.56,0,0,1,0,.12c-.08.26-.18.56-.3.89l-.23.7-.29.85c-.78,2.33-1.92,5.71-3.32,9.9l-.66,2c-5.34,16.07-13.93,42.33-21.43,67.22h26.6c2.58-7.46,5.32-18.1,5.32-18.1,1.07-1.27,1-4.72,1-4.72l8.36-8.78,6,31.6h25.26l.19-35.17v-.3A72.61,72.61,0,0,0,519.91,302.49Z" fill="#ccc"/><path d="M501.73,176.44h0a8,8,0,0,0,.27,2.06c0,.12.06.24.1.36h0a8.12,8.12,0,0,0,5,5.23l.54.18a6.33,6.33,0,0,0,1.15.23,7.67,7.67,0,0,0,1.89,0,8.18,8.18,0,0,0,1.9-.43l.28-.11.13,0a8.15,8.15,0,0,0,4.37-10.66c0-.13-.11-.25-.16-.37h0a8,8,0,0,0-1.6-2.24c-1.47-1.47-2.12-5.14-4.35-5.14h-.32c-1.5,0-4.27,3.29-5.45,4a7.64,7.64,0,0,0-2.23,2.12,7.91,7.91,0,0,0-1.32,2.89A8,8,0,0,0,501.73,176.44Z" fill="#2f2e41"/><path d="M511.68,173.6c1.26,1.47,3.24,2.05,5,2.81A21.19,21.19,0,0,1,529,191.87c.49,2.75.43,5.6,1.21,8.29s2.69,5.31,5.44,5.78c1.87.32,3.74-.4,5.49-1.11l2.89-1.17-3-7.57a38.29,38.29,0,0,0,5.58,6.54L557,198.45c-8.52,0-7.06-8.24-9-16.53-1-4.56-10-7.64-11.71-12a13.26,13.26,0,0,0-24.06-1.21C510.49,169.43,510.44,172.15,511.68,173.6Z" fill="#2f2e41"/><path d="M475.51,271a12.58,12.58,0,0,0-8.62,7.81,4,4,0,0,0,0,3.43,1.74,1.74,0,0,0,2.15.81,4.25,4.25,0,0,0,1.87-2,26,26,0,0,0,1.48-3.38c.66-1.75,2.09-4.67.05-6-1.71-1.16-4-.71-5.9-.79s-4.39-.88-5.13-3,1-4.07,2.78-4.87a7.23,7.23,0,0,1,6.75.65,9.78,9.78,0,0,1,3.93,5.67.7.7,0,0,1-.52.83.69.69,0,0,1-.82-.46,8.22,8.22,0,0,0-3.74-5.12,5.58,5.58,0,0,0-6,.23,2.44,2.44,0,0,0-1.06,2.77,3.3,3.3,0,0,0,2.38,1.78c2.2.53,4.49-.15,6.68.55a4,4,0,0,1,3,4.59,17,17,0,0,1-1.1,3.62,31.61,31.61,0,0,1-1.5,3.49c-.86,1.65-2.43,3.42-4.5,2.94-2.36-.55-2.91-3.3-2.41-5.32a13.8,13.8,0,0,1,9.8-9.49.69.69,0,0,1,.37,1.33Z" fill="#ccc"/><path d="M579.55,352.62h-164a7,7,0,0,1-7-7v-223a7,7,0,0,1,7-7h164a7,7,0,0,1,7,7v223A7,7,0,0,1,579.55,352.62Zm-164-235a5,5,0,0,0-5,5v223a5,5,0,0,0,5,5h164a5,5,0,0,0,5-5v-223a5,5,0,0,0-5-5Z" fill="#3f3d56"/><path d="M605.61,34.1H140.32a1.81,1.81,0,0,1,0-3.61H605.61a1.81,1.81,0,0,1,0,3.61Z" fill="#cacaca"/><path d="M696,248.62H643a13,13,0,0,1,0-26h53a13,13,0,0,1,0,26Z" fill="#6c63ff"/><path d="M316,303a2,2,0,0,1-1.48-3.53l.14-.56-.05-.13a5.48,5.48,0,0,0-10.11,0c-1.65,4-3.76,8-4.28,12.18a16.29,16.29,0,0,0,.29,5.57,64.92,64.92,0,0,1-5.91-27,62.89,62.89,0,0,1,.39-7q.31-2.85.89-5.67a65.66,65.66,0,0,1,13-27.86,17.43,17.43,0,0,0,7.27-7.55,13.46,13.46,0,0,0,1.22-3.64l-1.07.09-.34,0h0a2,2,0,0,1-2.11-1.92,2.06,2.06,0,0,1,.45-1.37c.15-.19.3-.38.46-.56l.7-.87.08-.09c.26-.33.53-.65.8-1a5.85,5.85,0,0,0-1.92-1.85c-2.68-1.57-6.37-.49-8.3,1.93a10.56,10.56,0,0,0-1.63,8.85,23.25,23.25,0,0,0,3.24,7.22l-.45.55a66.5,66.5,0,0,0-6.9,10.94,27.51,27.51,0,0,0-1.64-12.77c-1.57-3.79-4.52-7-7.11-10.26a5.64,5.64,0,0,0-10.06,2.77v.14c.38.22.76.45,1.13.69a2.77,2.77,0,0,1-1.12,5h-.05a27.54,27.54,0,0,0,.72,4.12,28.36,28.36,0,0,0,14.12,17.76l.67.34a67.2,67.2,0,0,0-3.63,17.11,63.75,63.75,0,0,0,0,10.34V295a17,17,0,0,0-5.78-9.77c-4.45-3.66-10.73-5-15.53-7.94a3.18,3.18,0,0,0-4.38,1,3.14,3.14,0,0,0-.48,2.13l0,.13a17.36,17.36,0,0,1,2.08,1,13.29,13.29,0,0,1,1.14.69,2.77,2.77,0,0,1,.76,3.84,2.74,2.74,0,0,1-1.88,1.19h-.06l-.11,0a27.41,27.41,0,0,0,5.07,7.94,28.36,28.36,0,0,0,20.57,9h0a68,68,0,0,0,4.53,13.23h16.2c.06-.18.11-.36.17-.54a18.77,18.77,0,0,1-4.49-.27c1.21-1.47,2.41-3,3.61-4.43l.07-.09c.61-.76,1.23-1.51,1.84-2.26h0A27,27,0,0,0,316,303Z" fill="#f2f2f2"/><g opacity="0.38"><path d="M285.22,279.5a5.86,5.86,0,0,1-.82-8.24,5.6,5.6,0,0,1,.72-.74l-13.24-34.61,10.58,2.24,11.24,33.29a5.89,5.89,0,0,1-8.48,8.06Z" fill="#ffb8b8"/><path d="M290.67,241.59l-11.88-49.44-5.11-14.38s0,0,0,0a9.4,9.4,0,0,0-12-5.66,6.07,6.07,0,0,0-.59.24,10.46,10.46,0,0,0-1.19.64,9.4,9.4,0,0,0-4.23,6.19l-.9,4.72-.38,2,14,49v0L273.25,252l2.26,7.88h0l2.62,9.17.06.19,6.29-.42h0l.95-.07,7.2-.48,1-.07-3-26.65Z" fill="#2f2e41"/><path d="M242.44,159.05l26.46,53.51,16.74,56.9c-35.27,6.88-79.52,21.59-82.71.49,2-58.82,8.15-77.59,20.91-103.09l18.6-7.81Z" fill="#2f2e41"/><path d="M277.82,317.62H256.09l-8.81-29.77-6.2,29.39c0,.13,0,.25-.05.38H217.87c.75-9.2,2.12-25.2,2.77-27.47.92-3.22,0-3.22-1.84-5.06-.41-.41-.55-2-.51-4.34.11-7.89,2.26-23.52,2.26-23.52l2.55-4.72.88-1.64,45.42-1.6h.39l.84,3.66,1,4.51,1.81,7.91,1.67,6.31.09.32v1.87a4.46,4.46,0,0,0-.38,2.07C274.85,276.55,276.29,296.49,277.82,317.62Z" fill="#2f2e41"/><path d="M239.34,167l3.11-7.46,9.66.17,10.06,14.24,10.56,44.42s3.8,32.45,0,34.16-49.73.81-49.73.81c2.12-17.53,3.71-35.36,5.38-46C233.9,172.12,236.51,179.52,239.34,167Z" fill="#6c63ff"/><path d="M252.11,159.69s20.79,12,21.6,18.29S277.24,261,277.24,261l-7.35-4.75-2-28c1.4-24.86-2-43.4-9-57.29l-6.8-11.32Z" fill="#2f2e41"/><circle cx="247.2" cy="142.03" r="14.17" transform="translate(34.29 331.63) rotate(-71.57)" fill="#ffb8b8"/><path d="M229.74,141.19a24.49,24.49,0,0,0,3.37,8.07,5.53,5.53,0,0,0,1.84,2.09,2,2,0,0,0,2.55-.32l.34-.28a7.52,7.52,0,0,1-1.78-1.55,2.5,2.5,0,0,1-.48-2.23,1.52,1.52,0,0,1,1.88-1c.83.32,1.33,1.52,2.2,1.34.7-.16.85-1.08.85-1.81,0-3.8,1.81-9.21,3.23-9a11.78,11.78,0,0,0,4.25-.57,11.15,11.15,0,0,1,4.25-.55l.31.06a9.24,9.24,0,0,1,.95-2.07,10.77,10.77,0,0,0,.11,2.34,22,22,0,0,0,3.54,1.12c1.31.18,4.2,4.11,4.34,3.71a9.34,9.34,0,0,1,.94-2.06,11.48,11.48,0,0,0,.12,2.34.31.31,0,0,0,0,.09c.64-.85,1-1.89.81-1.1,2.14-4.83,1.31-8.3-2.06-12.38a6.38,6.38,0,0,0-2.52-2,3.18,3.18,0,0,0-3.1.3,10.43,10.43,0,0,0-10.35-2.2c-3.51,1.22-6.21,1.93-6.74,5.61a7.8,7.8,0,0,0-7.48,3.64,11.77,11.77,0,0,0-1.38,8.47Z" fill="#2f2e41"/><path d="M190,276a5.86,5.86,0,0,1,3.26-7.61,5.65,5.65,0,0,1,1-.3l5.11-36.7,8.18,7.07L201.35,273A5.89,5.89,0,0,1,190,276Z" fill="#ffb8b8"/><path d="M235.13,178l-.39-3.56A9.44,9.44,0,0,0,229.3,167a9.19,9.19,0,0,0-3.64-.85h0a9.41,9.41,0,0,0-8.81,5.56l-6.24,14L194.85,234l-5.09,26.3,5.5.81,8,1.17h.06l1.83.27,25.57-68.44v0l4.78-12.79-.35-3.24Z" fill="#2f2e41"/></g><path d="M330.55,318.62h-164a7,7,0,0,1-7-7v-223a7,7,0,0,1,7-7h164a7,7,0,0,1,7,7v223A7,7,0,0,1,330.55,318.62Zm-164-235a5,5,0,0,0-5,5v223a5,5,0,0,0,5,5h164a5,5,0,0,0,5-5v-223a5,5,0,0,0-5-5Z" fill="#e6e6e6"/><path d="M66,248.62H13a13,13,0,0,1,0-26H66a13,13,0,0,1,0,26Z" fill="#e6e6e6"/><path d="M92,299.62H39a13,13,0,0,1,0-26H92a13,13,0,0,1,0,26Z" fill="#e6e6e6"/><rect x="170.23" y="240.61" width="2" height="102.43" transform="translate(-123.04 458.82) rotate(-89.17)" fill="#e6e6e6"/><path d="M226.74,297.14a5,5,0,0,1-4.51-2.81h0a5,5,0,1,1,4.51,2.81Zm0-8a3,3,0,0,0-2.7,4.32h0a3,3,0,1,0,2.7-4.32Z" fill="#e6e6e6"/><rect x="148.23" y="187.61" width="2" height="102.43" transform="translate(-91.73 384.59) rotate(-89.17)" fill="#e6e6e6"/><path d="M204.74,244.14a5,5,0,0,1-4.51-2.81h0a5,5,0,1,1,6.69,2.3A4.88,4.88,0,0,1,204.74,244.14ZM202,240.46a3,3,0,1,0-.14-2.3A3,3,0,0,0,202,240.46Z" fill="#e6e6e6"/><path d="M106,198.62H53a13,13,0,0,1,0-26h53a13,13,0,0,1,0,26Z" fill="#e6e6e6"/><rect x="188.23" y="137.61" width="2" height="102.43" transform="translate(-2.31 375.31) rotate(-89.17)" fill="#e6e6e6"/><path d="M244.74,194.14a5,5,0,0,1-4.51-2.81h0a5,5,0,1,1,6.69,2.3A4.88,4.88,0,0,1,244.74,194.14ZM242,190.46a3,3,0,1,0-.14-2.3A3,3,0,0,0,242,190.46Z" fill="#e6e6e6"/><rect x="565.1" y="180.79" width="2" height="102.43" transform="translate(325.94 794.7) rotate(-89.17)" fill="#3f3d56"/><path d="M510.61,236.69a5,5,0,1,1,2.19-.5A5,5,0,0,1,510.61,236.69Zm0-8a3,3,0,1,0,2.7,1.69h0a3,3,0,0,0-2.7-1.69Z" fill="#3f3d56"/><path d="M696,351.62H643a13,13,0,0,1,0-26h53a13,13,0,0,1,0,26Z" fill="#6c63ff"/><rect x="565.1" y="283.79" width="2" height="102.43" transform="translate(222.95 896.21) rotate(-89.17)" fill="#3f3d56"/><path d="M510.61,339.69a5,5,0,1,1,4.49-7.19h0a5,5,0,0,1-4.49,7.19Zm0-8a3,3,0,1,0,2.7,1.69h0A3,3,0,0,0,510.6,331.69Z" fill="#3f3d56"/><path d="M379,351.5a5.89,5.89,0,0,0,.91-8.27,7,7,0,0,0-.65-.68l9.52-27.74-7-4.52-11.07,33A5.87,5.87,0,0,0,379,351.5Z" fill="#ffb6b6"/><path d="M387.1,275c-1.68,7.12-4.19,13.34-3.85,16.32s-3.31,5.84-2.15,8.19-2.4,2.61-1.44,6.41,1.59,4.62.78,5.24-5.15,15.15-5.15,15.15l2.54.93,7.41,2.7,17.41-28.64,0-35.16-4.32-.13a35.79,35.79,0,0,0-3.34,1.42C391.44,269.1,387.9,271.6,387.1,275Z" fill="#6c63ff"/><polygon points="451.22 498.06 460.28 498.06 464.59 463.13 451.22 463.13 451.22 498.06" fill="#ffb6b6"/><path d="M463.29,498.88v-6.14l-2.38.14-9.69.58-2.24.14-1.72,20.56-.09,1.1h6.43l.21-1.1.93-5,2.41,5,.53,1.1h17.05a3.85,3.85,0,0,0,3.83-3.84C479.28,508.06,465.1,500.8,463.29,498.88Z" fill="#2f2e41"/><polygon points="345.13 488.2 353.01 492.67 373.99 464.42 362.37 457.82 345.13 488.2" fill="#ffb6b6"/><path d="M355.23,494.87l3-5.34-2.12-1-8.72-4.28-2-1-9.93,14.53-2.34,3.42,2.64,1.5,2.95,1.68,4-4.72-.45,6.73,13.93,7.91h0l.9.5a3.83,3.83,0,0,0,5.22-1.45C364.59,510.74,355.85,497.44,355.23,494.87Z" fill="#2f2e41"/><path d="M406.28,326.6c-12.13,8-24.14,85.3-21,84l-28.6,53.3,14.62,9.89,52.86-84.58,17.57,37.41L449,484.1l18.21-1.3c-4.73-64.71-16.54-132.95-26.33-159.34Z" fill="#2f2e41"/><path d="M397.07,332.34l-.13.5c12.83,7.13,47.94-1.13,47.94-1.13l-5.66-18.24L446.86,273A11.84,11.84,0,0,0,435,261.19q-.4,0-.81,0l-9.22-6.83-13.12.46L403,264.54l-5.25,1.88-4.07,1.45c-.82.74-1.72,1.6-2.59,2.54l6.45,38.36,2.74,11.47Z" fill="#6c63ff"/><circle cx="418.37" cy="236.03" r="16.84" fill="#ffb6b6"/><path d="M396.23,230.17l.15.05a1.45,1.45,0,0,0,.29.11,8,8,0,0,0,2,.46,6.48,6.48,0,0,0,.88,0,7,7,0,0,0,1.12-.07,7.34,7.34,0,0,0,1.22-.25c.19,0,.37-.11.56-.18a8.58,8.58,0,0,0,5.31-5.5h0a2.24,2.24,0,0,0,.1-.37,8.4,8.4,0,0,0,.29-2.17h0a8.6,8.6,0,0,0-1.59-5c-.63-.89-1.35-1-.95-2,1.3-3.24-4-5.89-7.13-4.47h-.34c-2.11,0-2.89,3.1-4.14,4.85l0,0a1.61,1.61,0,0,1,1,2.06,1.58,1.58,0,0,1-1,1c-.84.28-1.68.52-2.53.73C388.65,222.73,391.88,232.46,396.23,230.17Z" fill="#2f2e41"/><path d="M397.78,239.08a17.43,17.43,0,0,0,5.49,9.3c2.85,2.31,16.24,7.76,17.38,3.09-.76,3.26-.3,4.51.91,5.68.21-.29.43-.56.66-.82a10.67,10.67,0,0,1,3-2.38,34.19,34.19,0,0,1-.42,5.89,19.7,19.7,0,0,1,1.43,1.46c2.16-6.46,6.91-14.19,3.47-20.08-1.36-2.33-.22-2.65,1-2.92,2.11-.47,3.27-9.13,3.77-11.23.63-2.64.87-5.68-.76-7.85s-5.78-2.26-6.61.33l-1.75-2.37c-2.25-5-8.22-4-13.63-3.33a16.78,16.78,0,0,0-12.6,9.3,23,23,0,0,0-1.29,15.93Z" fill="#2f2e41"/><path d="M406.3,216.45a15.25,15.25,0,0,1-8.73,14.37c-1.09.5-2.05-1.13-.94-1.63a13.41,13.41,0,0,0,7.78-12.75c-.06-1.21,1.83-1.2,1.89,0Z" fill="#6c63ff"/><path d="M482.35,225.76a5.88,5.88,0,0,0-4.09,7.25,5.81,5.81,0,0,0,.32.88l-19.69,21.72,4.67,6.93,23.2-26a5.88,5.88,0,0,0-4.4-10.81Z" fill="#ffb6b6"/><path d="M426.37,296.24s14,2.51,18.32-3.38,9.12-10.59,10-13.47,5.34-4.06,5.2-6.68,3.24-1.45,3.85-5.32.36-4.87,1.36-5.13,10.7-11.88,10.7-11.88l-7.7-7.27-27.3,19.45Z" fill="#6c63ff"/><path d="M321.31,507.93a36.63,36.63,0,0,1-26.64-16.83c-3.78-6.13-5.73-13.41-7.61-20.45-.55-2-1.12-4.16-1.72-6.21a11.67,11.67,0,0,1,3.86-12.5,11.46,11.46,0,0,1,12.8-1.32l.44.23.77,17.38c1.15-2.33,3.66-7.59,5.65-12.84L309,455l.38.28a58.36,58.36,0,0,1,10.8,10A60.53,60.53,0,0,1,333,514.52l-.09.52Z" fill="#f2f2f2"/><path d="M250.44,514.86a1.18,1.18,0,0,0,1.18,1.19h290.3a1.19,1.19,0,0,0,0-2.38H251.63a1.19,1.19,0,0,0-1.19,1.19Z" fill="#ccc"/><ellipse cx="163.59" cy="8.65" rx="8.46" ry="8.65" fill="#3f3d56"/><ellipse cx="192.8" cy="8.65" rx="8.46" ry="8.65" fill="#3f3d56"/><ellipse cx="222.01" cy="8.65" rx="8.46" ry="8.65" fill="#3f3d56"/><path d="M255.32,15.48a1,1,0,0,1-.71-.3L248.9,9.34a1,1,0,0,1,0-1.39l5.71-5.84A1,1,0,0,1,256,3.51l-5,5.13,5,5.14a1,1,0,0,1-.72,1.7Z" fill="#3f3d56"/><path d="M264.91,15.48a1,1,0,0,1-.7-.29,1,1,0,0,1,0-1.41l5-5.14-5-5.13a1,1,0,0,1,0-1.41,1,1,0,0,1,1.42,0L271.33,8a1,1,0,0,1,0,1.39l-5.7,5.84A1,1,0,0,1,264.91,15.48Z" fill="#3f3d56"/><path d="M563.42,1H552.81a2.19,2.19,0,0,0-2.19,2.19V13.81A2.19,2.19,0,0,0,552.81,16h10.61a2.2,2.2,0,0,0,2.2-2.19V3.19A2.2,2.2,0,0,0,563.42,1Z" fill="#3f3d56"/><path d="M537.42,1H526.81a2.19,2.19,0,0,0-2.19,2.19V13.81A2.19,2.19,0,0,0,526.81,16h10.61a2.2,2.2,0,0,0,2.2-2.19V3.19A2.2,2.2,0,0,0,537.42,1Z" fill="#3f3d56"/><path d="M587.92,1.5H577.31a2.19,2.19,0,0,0-2.19,2.19V14.31a2.19,2.19,0,0,0,2.19,2.19h10.61a2.2,2.2,0,0,0,2.2-2.19V3.69A2.2,2.2,0,0,0,587.92,1.5Z" fill="#3f3d56"/><path d="M428,5.54H343.19a2.67,2.67,0,0,0,0,5.34H428a2.67,2.67,0,1,0,0-5.34Z" fill="#3f3d56"/></svg>